# xmcd
#
# Track frame offsets:
#	150
#	17951
#	33894
#	50337
#	68533
#	84519
#	100466
#	116746
#	134690
#	155098
#	173228
#	187982
#	206713
#	230144
#	248948
#
# Disc length: 3567 seconds
#
# Revision: 0
# Processed by: cddbd v1.5.2PL0 Copyright (c) Steve Scherf et al.
# Submitted via: EasyCDDAExtractor 16.0.8.2
#
DISCID=d50ded0f
DTITLE=Zucchero - Fly
DYEAR=2006
DGENRE=Blues
TTITLE0=Bacco Perbacco
TTITLE1=Un Kilo
TTITLE2=Occhi
TTITLE3=Quanti Anni Ho
TTITLE4=Cuba Libre
TTITLE5=E' Delicato
TTITLE6=L'Amore E' nell'Aria
TTITLE7=Pronto
TTITLE8=Let It Shine
TTITLE9=Troppa Fedelta'
TTITLE10=E Di Grazia Plena
TTITLE11=Blue (with Ilse DeLange)
TTITLE12=Let The Good Times Roll (with B.B. King)
TTITLE13=Baila Morena (Spanish)
TTITLE14=Everybodys Got to Learn Sometime (with Vanessa Carlton feat. Haylie H
TTITLE14=ecker)
EXTD=
EXTT0=
EXTT1=
EXTT2=
EXTT3=
EXTT4=
EXTT5=
EXTT6=
EXTT7=
EXTT8=
EXTT9=
EXTT10=
EXTT11=
EXTT12=
EXTT13=
EXTT14=
PLAYORDER=
